# MagicaVoxel @ Ephtracy

# material
mtllib CityLevel.mtl
usemtl palette

# normals
vn -1 0 0
vn 1 0 0
vn 0 0 1
vn 0 0 -1
vn 0 -1 0
vn 0 1 0

# texcoords
vt 0.306641 0.5
vt 0.650391 0.5
vt 0.763672 0.5
vt 0.865234 0.5
vt 0.974609 0.5
vt 0.978516 0.5
vt 0.982422 0.5

# verts
v -50 0 30
v -50 0 -30
v -50 2 30
v -50 2 29
v -50 2 27
v -50 2 13
v -50 2 11
v -50 2 -23
v -50 2 -30
v -50 22 10
v -50 22 -6
v -50 28 -6
v -50 28 -23
v -50 42 30
v -50 42 29
v -50 42 27
v -50 42 13
v -50 42 11
v -50 42 10
v -22 2 29
v -22 2 17
v -22 3 29
v -22 3 17
v 12 0 30
v 12 0 2
v 12 2 30
v 12 2 20
v 12 2 2
v 12 9 29
v 12 9 21
v 12 13 29
v 12 13 21
v 12 14 30
v 12 14 20
v 20 14 30
v 20 14 20
v 20 15 29
v 20 15 21
v 20 16 29
v 20 16 21
v 20 17 29
v 20 17 21
v 20 18 29
v 20 18 21
v 20 19 29
v 20 19 21
v 20 20 29
v 20 20 21
v 20 21 29
v 20 21 21
v 20 22 29
v 20 22 21
v 20 23 30
v 20 23 20
v 38 0 -5
v 38 0 -16
v 38 2 -5
v 38 2 -16
v 40 23 30
v 40 23 20
v 40 26 29
v 40 26 21
v 40 28 29
v 40 28 21
v 40 29 29
v 40 29 21
v 40 31 29
v 40 31 21
v 40 32 29
v 40 32 21
v 40 34 29
v 40 34 21
v 40 35 29
v 40 35 21
v 40 37 29
v 40 37 21
v 40 38 29
v 40 38 21
v 40 40 29
v 40 40 21
v 40 42 30
v 40 42 20
v 41 2 20
v 41 2 9
v 41 28 20
v 41 28 9
v 42 2 9
v 42 2 -5
v 42 20 9
v 42 20 -5
v -40 2 10
v -40 2 -6
v -40 22 10
v -40 22 -6
v -38 2 -6
v -38 2 -23
v -38 28 -6
v -38 28 -23
v -32 2 29
v -32 2 17
v -32 2 16
v -32 2 13
v -32 2 11
v -32 2 10
v -32 3 29
v -32 3 17
v -32 14 30
v -32 14 29
v -32 14 27
v -32 14 16
v -32 42 30
v -32 42 29
v -32 42 27
v -32 42 13
v -32 42 11
v -32 42 10
v -30 0 -20
v -30 0 -30
v -30 2 -20
v -30 2 -30
v -21 0 30
v -21 0 16
v -21 2 30
v -21 2 16
v -21 9 28
v -21 9 18
v -21 13 28
v -21 13 18
v -21 14 30
v -21 14 16
v -19 0 -10
v -19 0 -20
v -19 2 -10
v -19 2 -20
v -14 0 16
v -14 0 9
v -14 2 16
v -14 2 9
v -7 0 9
v -7 0 2
v -7 0 -5
v -7 0 -10
v -7 2 9
v -7 2 2
v -7 2 -5
v -7 2 -10
v 50 0 30
v 50 0 -16
v 50 2 30
v 50 2 -5
v 50 2 -16
v 50 20 9
v 50 20 -5
v 50 28 20
v 50 28 9
v 50 42 30
v 50 42 20
v -50 0 30
v -50 2 30
v -50 42 30
v -49 2 30
v -49 42 30
v -47 2 30
v -47 42 30
v -35 2 30
v -35 42 30
v -33 2 30
v -33 42 30
v -32 14 30
v -32 42 30
v -21 0 30
v -21 2 30
v -21 14 30
v 12 0 30
v 12 2 30
v 12 14 30
v 20 14 30
v 20 23 30
v 40 23 30
v 40 42 30
v 50 0 30
v 50 2 30
v 50 42 30
v -32 2 17
v -32 3 17
v -22 2 17
v -22 3 17
v -21 0 16
v -21 2 16
v -14 0 16
v -14 2 16
v -14 0 9
v -14 2 9
v -7 0 9
v -7 2 9
v -7 0 2
v -7 2 2
v 12 0 2
v 12 2 2
v -50 22 -6
v -50 28 -6
v -40 2 -6
v -40 22 -6
v -38 2 -6
v -38 28 -6
v -32 2 29
v -32 3 29
v -22 2 29
v -22 3 29
v 12 2 20
v 12 14 20
v 13 9 20
v 13 13 20
v 19 9 20
v 19 13 20
v 20 14 20
v 20 23 20
v 21 3 20
v 21 4 20
v 21 5 20
v 21 6 20
v 21 7 20
v 21 8 20
v 21 9 20
v 21 10 20
v 21 11 20
v 21 12 20
v 21 13 20
v 21 14 20
v 21 15 20
v 21 16 20
v 21 17 20
v 21 18 20
v 21 19 20
v 21 20 20
v 21 21 20
v 21 22 20
v 40 3 20
v 40 4 20
v 40 5 20
v 40 6 20
v 40 7 20
v 40 8 20
v 40 9 20
v 40 10 20
v 40 11 20
v 40 12 20
v 40 13 20
v 40 14 20
v 40 15 20
v 40 16 20
v 40 17 20
v 40 18 20
v 40 19 20
v 40 20 20
v 40 21 20
v 40 22 20
v 40 23 20
v 40 42 20
v 41 2 20
v 41 28 20
v 41 29 20
v 41 31 20
v 41 32 20
v 41 34 20
v 41 35 20
v 41 37 20
v 41 38 20
v 41 40 20
v 49 29 20
v 49 31 20
v 49 32 20
v 49 34 20
v 49 35 20
v 49 37 20
v 49 38 20
v 49 40 20
v 50 28 20
v 50 42 20
v -32 2 16
v -32 14 16
v -30 9 16
v -30 13 16
v -23 9 16
v -23 13 16
v -21 2 16
v -21 14 16
v -50 22 10
v -50 42 10
v -49 22 10
v -49 42 10
v -47 22 10
v -47 42 10
v -40 2 10
v -40 22 10
v -35 2 10
v -35 42 10
v -33 2 10
v -33 42 10
v -32 2 10
v -32 42 10
v 41 2 9
v 41 28 9
v 42 2 9
v 42 20 9
v 50 20 9
v 50 28 9
v -7 0 -5
v -7 2 -5
v 38 0 -5
v 38 2 -5
v 42 2 -5
v 42 20 -5
v 50 2 -5
v 50 20 -5
v -19 0 -10
v -19 2 -10
v -7 0 -10
v -7 2 -10
v 38 0 -16
v 38 2 -16
v 50 0 -16
v 50 2 -16
v -30 0 -20
v -30 2 -20
v -19 0 -20
v -19 2 -20
v -50 2 -23
v -50 28 -23
v -38 2 -23
v -38 28 -23
v -50 0 -30
v -50 2 -30
v -30 0 -30
v -30 2 -30
v -50 0 30
v -21 0 30
v 12 0 30
v 50 0 30
v -49 0 29
v -31 0 29
v -22 0 29
v 13 0 29
v 49 0 29
v -22 0 16
v -21 0 16
v -14 0 16
v -21 0 15
v -15 0 15
v -15 0 9
v -14 0 9
v -7 0 9
v -14 0 8
v -8 0 8
v -8 0 2
v -7 0 2
v 12 0 2
v 13 0 2
v -7 0 1
v 12 0 1
v -7 0 -4
v 38 0 -4
v -8 0 -5
v -7 0 -5
v 38 0 -5
v 39 0 -5
v -19 0 -9
v -8 0 -9
v -20 0 -10
v -19 0 -10
v -7 0 -10
v 39 0 -15
v 49 0 -15
v 38 0 -16
v 50 0 -16
v -30 0 -19
v -20 0 -19
v -31 0 -20
v -30 0 -20
v -19 0 -20
v -49 0 -29
v -31 0 -29
v -50 0 -30
v -30 0 -30
v -32 3 29
v -22 3 29
v -32 3 17
v -22 3 17
v -32 2 29
v -22 2 29
v 12 2 20
v 41 2 20
v -32 2 17
v -22 2 17
v -32 2 16
v -21 2 16
v -14 2 16
v -32 2 13
v -32 2 11
v -40 2 10
v -35 2 10
v -33 2 10
v -32 2 10
v -14 2 9
v -7 2 9
v 41 2 9
v 42 2 9
v -7 2 2
v 12 2 2
v -7 2 -5
v 38 2 -5
v 42 2 -5
v 50 2 -5
v -40 2 -6
v -38 2 -6
v -19 2 -10
v -7 2 -10
v 38 2 -16
v 50 2 -16
v -30 2 -20
v -19 2 -20
v -50 2 -23
v -38 2 -23
v -50 2 -30
v -30 2 -30
v -32 14 30
v -21 14 30
v 12 14 30
v 20 14 30
v -32 14 29
v -32 14 27
v 12 14 20
v 20 14 20
v -32 14 16
v -21 14 16
v 42 20 9
v 50 20 9
v 42 20 -5
v 50 20 -5
v -50 22 10
v -49 22 10
v -47 22 10
v -40 22 10
v -50 22 -6
v -40 22 -6
v 20 23 30
v 40 23 30
v 20 23 20
v 40 23 20
v 41 28 20
v 50 28 20
v 41 28 9
v 50 28 9
v -50 28 -6
v -38 28 -6
v -50 28 -23
v -38 28 -23
v -50 42 30
v -49 42 30
v -47 42 30
v -35 42 30
v -33 42 30
v -32 42 30
v 40 42 30
v 50 42 30
v -50 42 29
v -49 42 29
v -47 42 29
v -35 42 29
v -33 42 29
v -32 42 29
v -50 42 27
v -49 42 27
v -33 42 27
v -32 42 27
v 40 42 20
v 50 42 20
v -50 42 13
v -49 42 13
v -33 42 13
v -32 42 13
v -50 42 11
v -49 42 11
v -47 42 11
v -35 42 11
v -33 42 11
v -32 42 11
v -50 42 10
v -49 42 10
v -47 42 10
v -35 42 10
v -33 42 10
v -32 42 10

# faces
f 3/7/1 2/7/1 1/7/1
f 4/7/1 2/7/1 3/7/1
f 5/7/1 2/7/1 4/7/1
f 6/7/1 2/7/1 5/7/1
f 7/7/1 2/7/1 6/7/1
f 8/7/1 2/7/1 7/7/1
f 9/7/1 2/7/1 8/7/1
f 10/5/1 8/5/1 7/5/1
f 11/5/1 8/5/1 10/5/1
f 12/5/1 8/5/1 11/5/1
f 13/5/1 8/5/1 12/5/1
f 14/5/1 4/5/1 3/5/1
f 15/6/1 5/6/1 4/6/1
f 15/5/1 4/5/1 14/5/1
f 16/5/1 6/5/1 5/5/1
f 16/6/1 5/6/1 15/6/1
f 17/6/1 7/6/1 6/6/1
f 17/5/1 6/5/1 16/5/1
f 18/5/1 10/5/1 7/5/1
f 18/6/1 7/6/1 17/6/1
f 19/5/1 10/5/1 18/5/1
f 22/5/1 21/5/1 20/5/1
f 23/5/1 21/5/1 22/5/1
f 26/7/1 25/7/1 24/7/1
f 27/7/1 25/7/1 26/7/1
f 28/7/1 25/7/1 27/7/1
f 29/5/1 27/5/1 26/5/1
f 30/5/1 27/5/1 29/5/1
f 31/5/1 29/5/1 26/5/1
f 31/6/1 30/6/1 29/6/1
f 32/5/1 27/5/1 30/5/1
f 32/6/1 30/6/1 31/6/1
f 33/5/1 31/5/1 26/5/1
f 33/5/1 32/5/1 31/5/1
f 34/5/1 27/5/1 32/5/1
f 34/5/1 32/5/1 33/5/1
f 37/5/1 36/5/1 35/5/1
f 38/5/1 36/5/1 37/5/1
f 39/5/1 37/5/1 35/5/1
f 39/6/1 38/6/1 37/6/1
f 40/5/1 36/5/1 38/5/1
f 40/6/1 38/6/1 39/6/1
f 41/5/1 39/5/1 35/5/1
f 41/5/1 40/5/1 39/5/1
f 42/5/1 36/5/1 40/5/1
f 42/5/1 40/5/1 41/5/1
f 43/5/1 41/5/1 35/5/1
f 43/6/1 42/6/1 41/6/1
f 44/5/1 36/5/1 42/5/1
f 44/6/1 42/6/1 43/6/1
f 45/5/1 43/5/1 35/5/1
f 45/5/1 44/5/1 43/5/1
f 46/5/1 36/5/1 44/5/1
f 46/5/1 44/5/1 45/5/1
f 47/5/1 45/5/1 35/5/1
f 47/6/1 46/6/1 45/6/1
f 48/5/1 36/5/1 46/5/1
f 48/6/1 46/6/1 47/6/1
f 49/5/1 47/5/1 35/5/1
f 49/5/1 48/5/1 47/5/1
f 50/5/1 36/5/1 48/5/1
f 50/5/1 48/5/1 49/5/1
f 51/5/1 49/5/1 35/5/1
f 51/6/1 50/6/1 49/6/1
f 52/5/1 36/5/1 50/5/1
f 52/6/1 50/6/1 51/6/1
f 53/5/1 51/5/1 35/5/1
f 53/5/1 52/5/1 51/5/1
f 54/5/1 36/5/1 52/5/1
f 54/5/1 52/5/1 53/5/1
f 57/7/1 56/7/1 55/7/1
f 58/7/1 56/7/1 57/7/1
f 61/5/1 60/5/1 59/5/1
f 62/5/1 60/5/1 61/5/1
f 63/5/1 61/5/1 59/5/1
f 63/6/1 62/6/1 61/6/1
f 64/5/1 60/5/1 62/5/1
f 64/6/1 62/6/1 63/6/1
f 65/5/1 63/5/1 59/5/1
f 65/5/1 64/5/1 63/5/1
f 66/5/1 60/5/1 64/5/1
f 66/5/1 64/5/1 65/5/1
f 67/5/1 65/5/1 59/5/1
f 67/6/1 66/6/1 65/6/1
f 68/5/1 60/5/1 66/5/1
f 68/6/1 66/6/1 67/6/1
f 69/5/1 67/5/1 59/5/1
f 69/5/1 68/5/1 67/5/1
f 70/5/1 60/5/1 68/5/1
f 70/5/1 68/5/1 69/5/1
f 71/5/1 69/5/1 59/5/1
f 71/6/1 70/6/1 69/6/1
f 72/5/1 60/5/1 70/5/1
f 72/6/1 70/6/1 71/6/1
f 73/5/1 71/5/1 59/5/1
f 73/5/1 72/5/1 71/5/1
f 74/5/1 60/5/1 72/5/1
f 74/5/1 72/5/1 73/5/1
f 75/5/1 73/5/1 59/5/1
f 75/6/1 74/6/1 73/6/1
f 76/5/1 60/5/1 74/5/1
f 76/6/1 74/6/1 75/6/1
f 77/5/1 75/5/1 59/5/1
f 77/5/1 76/5/1 75/5/1
f 78/5/1 60/5/1 76/5/1
f 78/5/1 76/5/1 77/5/1
f 79/5/1 77/5/1 59/5/1
f 79/6/1 78/6/1 77/6/1
f 80/5/1 60/5/1 78/5/1
f 80/6/1 78/6/1 79/6/1
f 81/5/1 79/5/1 59/5/1
f 81/5/1 80/5/1 79/5/1
f 82/5/1 60/5/1 80/5/1
f 82/5/1 80/5/1 81/5/1
f 85/5/1 84/5/1 83/5/1
f 86/5/1 84/5/1 85/5/1
f 89/5/1 88/5/1 87/5/1
f 90/5/1 88/5/1 89/5/1
f 91/5/2 92/5/2 93/5/2
f 93/5/2 92/5/2 94/5/2
f 95/5/2 96/5/2 97/5/2
f 97/5/2 96/5/2 98/5/2
f 99/3/2 100/3/2 105/3/2
f 105/3/2 100/3/2 106/3/2
f 101/5/2 102/5/2 110/5/2
f 107/5/2 108/5/2 111/5/2
f 108/6/2 109/6/2 112/6/2
f 111/5/2 108/5/2 112/5/2
f 109/5/2 110/5/2 113/5/2
f 112/6/2 109/6/2 113/6/2
f 102/6/2 103/6/2 114/6/2
f 113/5/2 110/5/2 114/5/2
f 110/5/2 102/5/2 114/5/2
f 103/5/2 104/5/2 115/5/2
f 114/6/2 103/6/2 115/6/2
f 115/5/2 104/5/2 116/5/2
f 117/7/2 118/7/2 119/7/2
f 119/7/2 118/7/2 120/7/2
f 121/7/2 122/7/2 123/7/2
f 123/7/2 122/7/2 124/7/2
f 123/5/2 124/5/2 125/5/2
f 125/5/2 124/5/2 126/5/2
f 123/5/2 125/5/2 127/5/2
f 125/6/2 126/6/2 127/6/2
f 126/5/2 124/5/2 128/5/2
f 127/6/2 126/6/2 128/6/2
f 123/5/2 127/5/2 129/5/2
f 127/5/2 128/5/2 129/5/2
f 128/5/2 124/5/2 130/5/2
f 129/5/2 128/5/2 130/5/2
f 131/7/2 132/7/2 133/7/2
f 133/7/2 132/7/2 134/7/2
f 135/7/2 136/7/2 137/7/2
f 137/7/2 136/7/2 138/7/2
f 139/7/2 140/7/2 143/7/2
f 143/7/2 140/7/2 144/7/2
f 141/7/2 142/7/2 145/7/2
f 145/7/2 142/7/2 146/7/2
f 147/7/2 148/7/2 149/7/2
f 149/7/2 148/7/2 150/7/2
f 150/7/2 148/7/2 151/7/2
f 149/5/2 150/5/2 152/5/2
f 152/5/2 150/5/2 153/5/2
f 149/5/2 152/5/2 154/5/2
f 154/5/2 152/5/2 155/5/2
f 149/5/2 154/5/2 156/5/2
f 156/5/2 154/5/2 157/5/2
f 161/7/3 159/7/3 158/7/3
f 161/5/3 160/5/3 159/5/3
f 162/5/3 160/5/3 161/5/3
f 163/7/3 161/7/3 158/7/3
f 163/6/3 162/6/3 161/6/3
f 164/6/3 162/6/3 163/6/3
f 165/7/3 163/7/3 158/7/3
f 165/5/3 164/5/3 163/5/3
f 166/5/3 164/5/3 165/5/3
f 167/7/3 165/7/3 158/7/3
f 167/6/3 166/6/3 165/6/3
f 168/6/3 166/6/3 167/6/3
f 169/5/3 168/5/3 167/5/3
f 170/5/3 168/5/3 169/5/3
f 171/7/3 167/7/3 158/7/3
f 172/5/3 169/5/3 167/5/3
f 172/7/3 167/7/3 171/7/3
f 173/5/3 169/5/3 172/5/3
f 177/5/3 176/5/3 175/5/3
f 179/5/3 178/5/3 177/5/3
f 181/7/3 175/7/3 174/7/3
f 182/5/3 177/5/3 175/5/3
f 182/7/3 175/7/3 181/7/3
f 182/5/3 180/5/3 179/5/3
f 182/5/3 179/5/3 177/5/3
f 183/5/3 180/5/3 182/5/3
f 186/5/3 185/5/3 184/5/3
f 187/5/3 185/5/3 186/5/3
f 190/7/3 189/7/3 188/7/3
f 191/7/3 189/7/3 190/7/3
f 194/7/3 193/7/3 192/7/3
f 195/7/3 193/7/3 194/7/3
f 198/7/3 197/7/3 196/7/3
f 199/7/3 197/7/3 198/7/3
f 203/5/3 201/5/3 200/5/3
f 204/5/3 203/5/3 202/5/3
f 205/5/3 201/5/3 203/5/3
f 205/5/3 203/5/3 204/5/3
f 206/5/4 207/5/4 208/5/4
f 208/5/4 207/5/4 209/5/4
f 210/5/4 211/5/4 212/5/4
f 212/5/4 211/5/4 213/5/4
f 210/5/4 212/5/4 214/5/4
f 212/6/4 213/6/4 214/6/4
f 213/5/4 211/5/4 215/5/4
f 214/6/4 213/6/4 215/6/4
f 214/5/4 215/5/4 216/5/4
f 215/5/4 211/5/4 216/5/4
f 210/5/4 214/5/4 218/5/4
f 216/5/4 217/5/4 218/5/4
f 214/5/4 216/5/4 218/5/4
f 218/5/4 217/5/4 219/5/4
f 219/5/4 217/5/4 220/5/4
f 220/5/4 217/5/4 221/5/4
f 221/5/4 217/5/4 222/5/4
f 222/5/4 217/5/4 223/5/4
f 223/5/4 217/5/4 224/5/4
f 224/5/4 217/5/4 225/5/4
f 225/5/4 217/5/4 226/5/4
f 226/5/4 217/5/4 227/5/4
f 227/5/4 217/5/4 228/5/4
f 228/5/4 217/5/4 229/5/4
f 229/5/4 217/5/4 230/5/4
f 230/5/4 217/5/4 231/5/4
f 231/5/4 217/5/4 232/5/4
f 232/5/4 217/5/4 233/5/4
f 233/5/4 217/5/4 234/5/4
f 234/5/4 217/5/4 235/5/4
f 235/5/4 217/5/4 236/5/4
f 236/5/4 217/5/4 237/5/4
f 210/5/4 218/5/4 238/5/4
f 218/6/4 219/6/4 238/6/4
f 219/5/4 220/5/4 239/5/4
f 238/6/4 219/6/4 239/6/4
f 220/6/4 221/6/4 240/6/4
f 239/5/4 220/5/4 240/5/4
f 221/5/4 222/5/4 241/5/4
f 240/6/4 221/6/4 241/6/4
f 222/6/4 223/6/4 242/6/4
f 241/5/4 222/5/4 242/5/4
f 223/5/4 224/5/4 243/5/4
f 242/6/4 223/6/4 243/6/4
f 224/6/4 225/6/4 244/6/4
f 243/5/4 224/5/4 244/5/4
f 225/5/4 226/5/4 245/5/4
f 244/6/4 225/6/4 245/6/4
f 226/6/4 227/6/4 246/6/4
f 245/5/4 226/5/4 246/5/4
f 227/5/4 228/5/4 247/5/4
f 246/6/4 227/6/4 247/6/4
f 228/6/4 229/6/4 248/6/4
f 247/5/4 228/5/4 248/5/4
f 229/5/4 230/5/4 249/5/4
f 248/6/4 229/6/4 249/6/4
f 230/6/4 231/6/4 250/6/4
f 249/5/4 230/5/4 250/5/4
f 231/5/4 232/5/4 251/5/4
f 250/6/4 231/6/4 251/6/4
f 232/6/4 233/6/4 252/6/4
f 251/5/4 232/5/4 252/5/4
f 233/5/4 234/5/4 253/5/4
f 252/6/4 233/6/4 253/6/4
f 234/6/4 235/6/4 254/6/4
f 253/5/4 234/5/4 254/5/4
f 235/5/4 236/5/4 255/5/4
f 254/6/4 235/6/4 255/6/4
f 236/6/4 237/6/4 256/6/4
f 255/5/4 236/5/4 256/5/4
f 237/5/4 217/5/4 257/5/4
f 256/6/4 237/6/4 257/6/4
f 257/5/4 217/5/4 258/5/4
f 255/5/4 256/5/4 260/5/4
f 258/5/4 259/5/4 260/5/4
f 257/5/4 258/5/4 260/5/4
f 256/5/4 257/5/4 260/5/4
f 253/5/4 254/5/4 260/5/4
f 252/5/4 253/5/4 260/5/4
f 251/5/4 252/5/4 260/5/4
f 250/5/4 251/5/4 260/5/4
f 249/5/4 250/5/4 260/5/4
f 248/5/4 249/5/4 260/5/4
f 247/5/4 248/5/4 260/5/4
f 246/5/4 247/5/4 260/5/4
f 245/5/4 246/5/4 260/5/4
f 244/5/4 245/5/4 260/5/4
f 243/5/4 244/5/4 260/5/4
f 242/5/4 243/5/4 260/5/4
f 241/5/4 242/5/4 260/5/4
f 240/5/4 241/5/4 260/5/4
f 239/5/4 240/5/4 260/5/4
f 238/5/4 239/5/4 260/5/4
f 210/5/4 238/5/4 260/5/4
f 254/5/4 255/5/4 260/5/4
f 260/5/4 259/5/4 261/5/4
f 261/5/4 259/5/4 262/5/4
f 262/5/4 259/5/4 263/5/4
f 263/5/4 259/5/4 264/5/4
f 264/5/4 259/5/4 265/5/4
f 265/5/4 259/5/4 266/5/4
f 266/5/4 259/5/4 267/5/4
f 267/5/4 259/5/4 268/5/4
f 268/5/4 259/5/4 269/5/4
f 261/5/4 262/5/4 270/5/4
f 262/6/4 263/6/4 270/6/4
f 263/5/4 264/5/4 271/5/4
f 270/6/4 263/6/4 271/6/4
f 264/6/4 265/6/4 272/6/4
f 271/5/4 264/5/4 272/5/4
f 265/5/4 266/5/4 273/5/4
f 272/6/4 265/6/4 273/6/4
f 266/6/4 267/6/4 274/6/4
f 273/5/4 266/5/4 274/5/4
f 267/5/4 268/5/4 275/5/4
f 274/6/4 267/6/4 275/6/4
f 268/6/4 269/6/4 276/6/4
f 275/5/4 268/5/4 276/5/4
f 269/5/4 259/5/4 277/5/4
f 276/6/4 269/6/4 277/6/4
f 275/5/4 276/5/4 278/5/4
f 274/5/4 275/5/4 278/5/4
f 276/5/4 277/5/4 278/5/4
f 272/5/4 273/5/4 278/5/4
f 271/5/4 272/5/4 278/5/4
f 270/5/4 271/5/4 278/5/4
f 261/5/4 270/5/4 278/5/4
f 273/5/4 274/5/4 278/5/4
f 277/5/4 259/5/4 279/5/4
f 278/5/4 277/5/4 279/5/4
f 280/5/4 281/5/4 282/5/4
f 282/5/4 281/5/4 283/5/4
f 280/5/4 282/5/4 284/5/4
f 282/6/4 283/6/4 284/6/4
f 283/5/4 281/5/4 285/5/4
f 284/6/4 283/6/4 285/6/4
f 280/5/4 284/5/4 286/5/4
f 284/5/4 285/5/4 286/5/4
f 285/5/4 281/5/4 287/5/4
f 286/5/4 285/5/4 287/5/4
f 288/5/4 289/5/4 290/5/4
f 290/5/4 289/5/4 291/5/4
f 290/6/4 291/6/4 292/6/4
f 292/6/4 291/6/4 293/6/4
f 292/5/4 293/5/4 295/5/4
f 294/5/4 295/5/4 296/5/4
f 295/5/4 293/5/4 297/5/4
f 296/5/4 295/5/4 297/5/4
f 296/6/4 297/6/4 298/6/4
f 298/6/4 297/6/4 299/6/4
f 298/5/4 299/5/4 300/5/4
f 300/5/4 299/5/4 301/5/4
f 302/5/4 303/5/4 304/5/4
f 304/5/4 303/5/4 305/5/4
f 305/5/4 303/5/4 306/5/4
f 306/5/4 303/5/4 307/5/4
f 308/7/4 309/7/4 310/7/4
f 310/7/4 309/7/4 311/7/4
f 312/5/4 313/5/4 314/5/4
f 314/5/4 313/5/4 315/5/4
f 316/7/4 317/7/4 318/7/4
f 318/7/4 317/7/4 319/7/4
f 320/7/4 321/7/4 322/7/4
f 322/7/4 321/7/4 323/7/4
f 324/7/4 325/7/4 326/7/4
f 326/7/4 325/7/4 327/7/4
f 328/5/4 329/5/4 330/5/4
f 330/5/4 329/5/4 331/5/4
f 332/7/4 333/7/4 334/7/4
f 334/7/4 333/7/4 335/7/4
f 340/7/5 337/7/5 336/7/5
f 341/7/5 337/7/5 340/7/5
f 342/7/5 337/7/5 341/7/5
f 343/7/5 339/7/5 338/7/5
f 344/7/5 339/7/5 343/7/5
f 345/7/5 337/7/5 342/7/5
f 345/1/5 342/1/5 341/1/5
f 346/7/5 337/7/5 345/7/5
f 348/1/5 346/1/5 345/1/5
f 348/7/5 347/7/5 346/7/5
f 349/7/5 347/7/5 348/7/5
f 350/1/5 349/1/5 348/1/5
f 350/7/5 347/7/5 349/7/5
f 351/7/5 347/7/5 350/7/5
f 353/1/5 351/1/5 350/1/5
f 353/7/5 352/7/5 351/7/5
f 354/7/5 352/7/5 353/7/5
f 355/1/5 354/1/5 353/1/5
f 355/7/5 352/7/5 354/7/5
f 356/7/5 352/7/5 355/7/5
f 357/7/5 343/7/5 338/7/5
f 358/1/5 344/1/5 343/1/5
f 358/7/5 343/7/5 357/7/5
f 359/7/5 357/7/5 356/7/5
f 359/1/5 356/1/5 355/1/5
f 360/1/5 358/1/5 357/1/5
f 360/7/5 357/7/5 359/7/5
f 361/1/5 359/1/5 355/1/5
f 361/1/5 360/1/5 359/1/5
f 362/1/5 344/1/5 358/1/5
f 362/1/5 360/1/5 361/1/5
f 362/1/5 358/1/5 360/1/5
f 363/1/5 361/1/5 355/1/5
f 363/1/5 355/1/5 353/1/5
f 364/7/5 362/7/5 361/7/5
f 364/1/5 361/1/5 363/1/5
f 365/1/5 344/1/5 362/1/5
f 365/7/5 362/7/5 364/7/5
f 366/1/5 344/1/5 365/1/5
f 367/1/5 350/1/5 348/1/5
f 367/1/5 353/1/5 350/1/5
f 367/1/5 363/1/5 353/1/5
f 368/7/5 364/7/5 363/7/5
f 368/1/5 363/1/5 367/1/5
f 369/1/5 367/1/5 348/1/5
f 370/7/5 368/7/5 367/7/5
f 370/1/5 367/1/5 369/1/5
f 371/7/5 364/7/5 368/7/5
f 371/7/5 368/7/5 370/7/5
f 372/1/5 344/1/5 366/1/5
f 372/7/5 366/7/5 365/7/5
f 373/7/5 339/7/5 344/7/5
f 373/1/5 344/1/5 372/1/5
f 374/7/5 372/7/5 365/7/5
f 374/7/5 373/7/5 372/7/5
f 375/7/5 339/7/5 373/7/5
f 375/7/5 373/7/5 374/7/5
f 376/1/5 345/1/5 341/1/5
f 376/1/5 348/1/5 345/1/5
f 376/1/5 369/1/5 348/1/5
f 377/7/5 370/7/5 369/7/5
f 377/1/5 369/1/5 376/1/5
f 378/2/5 341/2/5 340/2/5
f 378/1/5 376/1/5 341/1/5
f 379/7/5 377/7/5 376/7/5
f 379/1/5 376/1/5 378/1/5
f 380/7/5 370/7/5 377/7/5
f 380/7/5 377/7/5 379/7/5
f 381/7/5 340/7/5 336/7/5
f 381/2/5 378/2/5 340/2/5
f 382/7/5 379/7/5 378/7/5
f 382/2/5 378/2/5 381/2/5
f 383/7/5 381/7/5 336/7/5
f 383/7/5 382/7/5 381/7/5
f 384/7/5 379/7/5 382/7/5
f 384/7/5 382/7/5 383/7/5
f 387/3/5 386/3/5 385/3/5
f 388/3/5 386/3/5 387/3/5
f 389/1/6 390/1/6 393/1/6
f 393/1/6 390/1/6 394/1/6
f 395/7/6 396/7/6 398/7/6
f 396/7/6 397/7/6 398/7/6
f 398/7/6 397/7/6 399/7/6
f 399/7/6 397/7/6 403/7/6
f 401/7/6 402/7/6 404/7/6
f 402/7/6 403/7/6 404/7/6
f 403/7/6 397/7/6 404/7/6
f 400/7/6 401/7/6 404/7/6
f 391/7/6 392/7/6 406/7/6
f 404/7/6 405/7/6 408/7/6
f 406/7/6 407/7/6 409/7/6
f 391/7/6 406/7/6 409/7/6
f 404/7/6 408/7/6 410/7/6
f 408/7/6 409/7/6 410/7/6
f 409/7/6 407/7/6 411/7/6
f 410/7/6 409/7/6 411/7/6
f 411/7/6 407/7/6 412/7/6
f 404/7/6 410/7/6 414/7/6
f 400/7/6 404/7/6 414/7/6
f 414/7/6 410/7/6 415/7/6
f 415/7/6 410/7/6 416/7/6
f 416/7/6 410/7/6 417/7/6
f 412/7/6 413/7/6 418/7/6
f 411/7/6 412/7/6 418/7/6
f 418/7/6 413/7/6 419/7/6
f 415/7/6 416/7/6 420/7/6
f 420/7/6 416/7/6 421/7/6
f 415/7/6 420/7/6 423/7/6
f 422/7/6 423/7/6 424/7/6
f 423/7/6 420/7/6 425/7/6
f 424/7/6 423/7/6 425/7/6
f 426/5/6 427/5/6 430/5/6
f 430/5/6 427/5/6 431/5/6
f 428/5/6 429/5/6 432/5/6
f 432/5/6 429/5/6 433/5/6
f 431/5/6 427/5/6 434/5/6
f 434/5/6 427/5/6 435/5/6
f 436/5/6 437/5/6 438/5/6
f 438/5/6 437/5/6 439/5/6
f 440/5/6 441/5/6 444/5/6
f 442/5/6 443/5/6 444/5/6
f 441/5/6 442/5/6 444/5/6
f 444/5/6 443/5/6 445/5/6
f 446/5/6 447/5/6 448/5/6
f 448/5/6 447/5/6 449/5/6
f 450/5/6 451/5/6 452/5/6
f 452/5/6 451/5/6 453/5/6
f 454/5/6 455/5/6 456/5/6
f 456/5/6 455/5/6 457/5/6
f 458/5/6 459/5/6 466/5/6
f 459/6/6 460/6/6 467/6/6
f 466/5/6 459/5/6 467/5/6
f 460/5/6 461/5/6 468/5/6
f 467/6/6 460/6/6 468/6/6
f 461/6/6 462/6/6 469/6/6
f 468/5/6 461/5/6 469/5/6
f 462/5/6 463/5/6 470/5/6
f 469/6/6 462/6/6 470/6/6
f 470/5/6 463/5/6 471/5/6
f 466/6/6 467/6/6 472/6/6
f 467/5/6 468/5/6 473/5/6
f 472/6/6 467/6/6 473/6/6
f 468/5/6 469/5/6 473/5/6
f 469/5/6 470/5/6 473/5/6
f 470/6/6 471/6/6 474/6/6
f 473/5/6 470/5/6 474/5/6
f 474/6/6 471/6/6 475/6/6
f 464/5/6 465/5/6 476/5/6
f 476/5/6 465/5/6 477/5/6
f 474/5/6 475/5/6 478/5/6
f 473/5/6 474/5/6 478/5/6
f 472/5/6 473/5/6 478/5/6
f 478/5/6 475/5/6 479/5/6
f 479/5/6 475/5/6 480/5/6
f 480/5/6 475/5/6 481/5/6
f 478/6/6 479/6/6 482/6/6
f 479/5/6 480/5/6 483/5/6
f 482/6/6 479/6/6 483/6/6
f 483/5/6 480/5/6 484/5/6
f 484/5/6 480/5/6 485/5/6
f 480/6/6 481/6/6 486/6/6
f 485/5/6 480/5/6 486/5/6
f 486/6/6 481/6/6 487/6/6
f 482/5/6 483/5/6 488/5/6
f 483/6/6 484/6/6 489/6/6
f 488/5/6 483/5/6 489/5/6
f 484/5/6 485/5/6 490/5/6
f 489/6/6 484/6/6 490/6/6
f 485/6/6 486/6/6 491/6/6
f 490/5/6 485/5/6 491/5/6
f 486/5/6 487/5/6 492/5/6
f 491/6/6 486/6/6 492/6/6
f 492/5/6 487/5/6 493/5/6
